<svg width="304" height="60" viewBox="0 0 304 60" fill="none" xmlns="http://www.w3.org/2000/svg">
<g clip-path="url(#clip0_11777_498)">
<path d="M46.3793 0H13.6207C6.0982 0 0 6.0982 0 13.6207V46.3793C0 53.9018 6.0982 60 13.6207 60H46.3793C53.9018 60 60 53.9018 60 46.3793V13.6207C60 6.0982 53.9018 0 46.3793 0Z" fill="#00D992"/>
<path d="M46.7275 14.8268V13.8785C46.7275 12.0164 45.176 11.5509 44.4 11.5509H31.1242C30.2275 11.5509 29.5437 12.345 29.3137 12.742L28.1102 14.8268L25.8207 18.7923C25.164 19.9295 24.3819 19.4819 23.9837 18.7923L22.391 16.0337C22.1771 15.6632 21.8774 15.3994 21.5552 15.2149C21.0375 14.9185 20.4616 14.8268 20.0896 14.8268H15.5207C13.8827 14.8268 13.2793 16.3785 13.2793 17.0682V28.275V29.7405C13.2793 30.344 13.9172 31.551 15.0896 31.551H18.4544H21.5552V46.1198C21.5552 47.1543 21.9172 48.4475 23.7103 48.4475H37.1587C38.2792 48.4475 40.2092 46.8958 38.8655 44.5683L31.35 31.551L30.3482 29.816C30.006 29.2233 30.0897 28.275 31.1242 28.275H44.7447C45.5207 28.275 46.7275 27.6025 46.7275 26.2923V14.8268Z" fill="#060F11"/>
<path d="M264.842 21.9554C266.795 21.9554 268.522 22.3103 270.022 23.0196L277.705 22.399V27.2779H274.2C274.597 28.2591 274.797 29.3434 274.797 30.5309C274.797 32.2064 274.385 33.7014 273.565 35.0156C272.742 36.2969 271.577 37.2991 270.065 38.0219C268.555 38.7446 266.812 39.1061 264.842 39.1061C263.497 39.1061 262.262 38.9381 261.132 38.6024C260.847 38.7674 260.59 38.9519 260.357 39.1554C259.865 39.6154 259.617 40.1246 259.617 40.6831C259.617 41.2419 259.83 41.6524 260.257 41.9151C260.685 42.1781 261.342 42.3094 262.23 42.3094H269.572C272.267 42.3094 274.385 42.9011 275.93 44.0839C277.507 45.2666 278.295 46.9586 278.295 49.1601C278.295 51.0984 277.752 52.6921 276.67 53.9406C275.617 55.2219 274.122 56.1746 272.185 56.7989C270.28 57.4231 268.045 57.7351 265.482 57.7351C261.572 57.7351 258.55 57.1109 256.415 55.8624C254.277 54.6139 253.21 52.7411 253.21 50.2444C253.21 49.5214 253.342 48.7986 253.605 48.0759C253.9 47.3859 254.277 46.7451 254.737 46.1536C255.055 45.7744 255.397 45.4356 255.767 45.1374C254.622 44.2511 254.047 43.0786 254.047 41.6196C254.047 40.3054 254.507 39.1719 255.427 38.2191C256.025 37.5789 256.715 37.0361 257.492 36.5899C256.982 36.1229 256.54 35.5981 256.167 35.0156C255.345 33.7014 254.935 32.2064 254.935 30.5309C254.935 28.8224 255.345 27.3274 256.167 26.0461C256.99 24.7646 258.14 23.7625 259.617 23.0397C261.13 22.3169 262.87 21.9554 264.842 21.9554ZM260.427 46.7431C259.972 47.0579 259.62 47.4199 259.37 47.8291C259.042 48.4206 258.877 49.0449 258.877 49.7021C258.877 50.8191 259.437 51.6569 260.552 52.2154C261.67 52.8069 263.312 53.1026 265.482 53.1026C267.912 53.1026 269.705 52.7741 270.855 52.1171C272.037 51.4929 272.627 50.6056 272.627 49.4556C272.627 48.5359 272.315 47.8786 271.692 47.4844C271.1 47.0571 270.18 46.8436 268.932 46.8436H262.377C261.692 46.8436 261.042 46.8099 260.427 46.7431ZM125.878 21.9554C129.131 21.9554 131.693 22.7112 133.566 24.2225C135.439 25.7011 136.687 27.5409 137.312 29.7424C137.969 31.9109 138.166 34.0956 137.903 36.2971H119.076C119.182 37.5561 119.461 38.6896 119.914 39.6976C120.506 40.9789 121.344 41.9644 122.428 42.6544C123.512 43.3444 124.794 43.6896 126.272 43.6896C127.882 43.6896 129.18 43.3444 130.165 42.6544C131.151 41.9316 131.857 40.8639 132.285 39.4511L137.903 40.9789C137.213 43.3116 135.849 45.1516 133.812 46.4986C131.808 47.8456 129.245 48.5191 126.124 48.5191C123.693 48.5191 121.508 47.9606 119.569 46.8436C117.631 45.6936 116.12 44.1166 115.036 42.1124C113.951 40.0754 113.409 37.7754 113.409 35.2129C113.409 32.6829 113.935 30.4156 114.986 28.4116C116.038 26.3744 117.516 24.7974 119.422 23.6803C121.327 22.5304 123.479 21.9554 125.878 21.9554ZM194.332 48.0264H188.616V44.7244C187.893 45.8086 186.809 46.7121 185.363 47.4349C183.95 48.1579 182.455 48.5191 180.878 48.5191C178.578 48.5191 176.508 47.9444 174.668 46.7944C172.861 45.6444 171.432 44.0674 170.381 42.0631C169.362 40.0261 168.853 37.7426 168.853 35.2129C168.853 32.6829 169.362 30.4156 170.381 28.4116C171.432 26.3744 172.861 24.7974 174.668 23.6803C176.508 22.5303 178.578 21.9554 180.878 21.9554C182.455 21.9554 183.95 22.3168 185.363 23.0397C186.809 23.7296 187.893 24.6168 188.616 25.7011V12.0001H194.332V48.0264ZM211.61 12.0001C213.877 12.0001 215.964 12.3944 217.87 13.183C219.775 13.9715 221.319 15.0887 222.502 16.5343C223.685 17.9471 224.375 19.5733 224.572 21.4132L218.855 22.4974H218.658C218.362 20.9861 217.59 19.7539 216.342 18.8011C215.093 17.8483 213.516 17.372 211.61 17.3719C210.362 17.3719 209.278 17.5363 208.358 17.8649C207.471 18.1934 206.797 18.6863 206.337 19.3434C205.877 19.9676 205.647 20.7234 205.647 21.6105C205.647 22.6946 206.009 23.5816 206.731 24.2716C207.454 24.9287 208.489 25.4544 209.836 25.8489L215.849 27.5736C218.707 28.3621 220.941 29.5451 222.551 31.1221C224.161 32.6664 224.966 34.9169 224.966 37.8739C224.966 39.9766 224.408 41.8331 223.291 43.4429C222.206 45.0529 220.678 46.3014 218.707 47.1886C216.736 48.0756 214.485 48.5191 211.955 48.5191C209.458 48.5191 207.175 48.0264 205.105 47.0406C203.068 46.0549 201.409 44.7079 200.127 42.9994C198.879 41.2909 198.156 39.3854 197.959 37.2826L203.725 36.2476H203.922C204.054 37.5619 204.481 38.7446 205.203 39.7961C205.959 40.8474 206.928 41.6686 208.111 42.2601C209.294 42.8516 210.576 43.1474 211.955 43.1474C213.302 43.1474 214.485 42.9504 215.504 42.5561C216.522 42.1619 217.311 41.6031 217.87 40.8804C218.428 40.1246 218.707 39.2704 218.707 38.3176C218.707 37.0691 218.297 36.0504 217.475 35.2619C216.687 34.4404 215.602 33.8164 214.223 33.3894L208.21 31.7136C205.483 30.9249 203.331 29.7751 201.754 28.2639C200.177 26.7524 199.388 24.6331 199.388 21.9061C199.388 19.9676 199.914 18.2591 200.965 16.7806C202.017 15.2693 203.479 14.1028 205.351 13.2814C207.224 12.4271 209.311 12.0001 211.61 12.0001ZM239.147 21.9554C241.249 21.9554 243.106 22.3333 244.716 23.089C246.358 23.8447 247.623 24.9454 248.51 26.3909C249.397 27.8366 249.841 29.5286 249.841 31.4671V48.0264H244.124V44.7184C243.573 45.5524 242.917 46.2444 242.153 46.7944C240.51 47.9441 238.67 48.5191 236.633 48.5191C234.925 48.5191 233.397 48.2071 232.05 47.5829C230.703 46.9259 229.635 46.0386 228.846 44.9216C228.091 43.7716 227.713 42.4904 227.713 41.0776C227.713 39.5991 228.058 38.3176 228.748 37.2334C229.471 36.1161 230.489 35.2294 231.803 34.5721C233.15 33.8821 234.777 33.3894 236.682 33.0936L244.124 32.0094V31.1221C244.124 30.1366 243.911 29.2824 243.484 28.5594C243.056 27.8366 242.465 27.2944 241.709 26.9329C240.954 26.5716 240.099 26.3911 239.147 26.3909C238.062 26.3909 237.11 26.5881 236.288 26.9824C235.5 27.3436 234.859 27.8531 234.366 28.5101C233.873 29.1671 233.528 29.9559 233.331 30.8759L228.058 29.4956C228.452 28.0829 229.126 26.8181 230.078 25.7011C231.031 24.584 232.263 23.6803 233.775 22.9903C235.319 22.3004 237.11 21.9554 239.147 21.9554ZM291.777 21.9554C295.03 21.9554 297.592 22.7112 299.465 24.2225C301.337 25.7011 302.585 27.5409 303.21 29.7424C303.867 31.9109 304.065 34.0956 303.802 36.2971H284.975C285.08 37.5561 285.36 38.6896 285.812 39.6976C286.405 40.9789 287.242 41.9644 288.327 42.6544C289.41 43.3444 290.692 43.6896 292.17 43.6896C293.78 43.6896 295.077 43.3444 296.065 42.6544C297.05 41.9316 297.755 40.8639 298.182 39.4511L303.802 40.9789C303.112 43.3116 301.747 45.1516 299.71 46.4986C297.707 47.8456 295.145 48.5191 292.022 48.5191C289.592 48.5191 287.407 47.9606 285.467 46.8436C283.53 45.6936 282.017 44.1166 280.935 42.1124C279.85 40.0754 279.307 37.7754 279.307 35.2129C279.307 32.6829 279.832 30.4156 280.885 28.4116C281.935 26.3744 283.415 24.7974 285.32 23.6803C287.225 22.5304 289.377 21.9554 291.777 21.9554ZM111.192 21.9554C111.947 21.9554 112.473 21.9884 112.769 22.0541V27.5739C110.896 27.2454 109.319 27.4094 108.038 28.0666C106.756 28.6909 105.771 29.5779 105.081 30.7279C104.583 31.5574 104.206 32.4214 103.947 33.3194V48.0264H98.1811V22.4484H103.947V26.3584C104.227 25.8651 104.556 25.3994 104.933 24.9618C105.754 24.009 106.707 23.2697 107.791 22.744C108.876 22.2183 110.009 21.9555 111.192 21.9554ZM155.38 21.9554C157.187 21.9554 158.813 22.3333 160.259 23.089C161.737 23.8118 162.887 24.8631 163.709 26.2431C164.563 27.5901 164.99 29.1836 164.99 31.0236V48.0264H159.273V32.4034C159.273 31.2536 159.06 30.2681 158.632 29.4466C158.238 28.6254 157.63 28.0009 156.809 27.5739C156.02 27.1466 155.1 26.9329 154.049 26.9329C153.03 26.9331 152.094 27.1959 151.24 27.7216C150.418 28.2144 149.696 28.9209 149.071 29.8406C148.48 30.7279 148.086 31.7299 147.889 32.8471V48.0264H142.122V22.4484H147.889V25.8489C148.71 24.666 149.761 23.7296 151.043 23.0397C152.357 22.3169 153.803 21.9554 155.38 21.9554ZM99.9871 17.8649H89.0461V48.0261H82.9844V17.8649H71.9941V12.493H99.9871V17.8649ZM237.619 37.1839C236.272 37.3811 235.253 37.7919 234.563 38.4161C233.906 39.0076 233.578 39.8124 233.578 40.8309C233.578 41.8166 233.939 42.6381 234.662 43.2954C235.417 43.9196 236.403 44.2316 237.619 44.2316C238.933 44.2316 240.083 43.9031 241.068 43.2459C242.087 42.5561 242.876 41.7016 243.434 40.6831C243.717 40.1806 243.947 39.6701 244.124 39.1524V36.0506L237.619 37.1839ZM181.815 26.9329C180.435 26.9329 179.202 27.2779 178.118 27.9679C177.067 28.6579 176.229 29.6271 175.605 30.8756C175.013 32.1241 174.718 33.5536 174.718 35.1634C174.718 36.7734 175.013 38.2191 175.605 39.5004C176.229 40.7816 177.067 41.7839 178.118 42.5066C179.203 43.1966 180.435 43.5416 181.815 43.5416C183.03 43.5416 184.131 43.2624 185.117 42.7036C186.102 42.1124 186.907 41.3074 187.531 40.2889C188.156 39.2376 188.517 38.0711 188.616 36.7896V33.5369C188.517 32.2556 188.156 31.1221 187.531 30.1364C186.94 29.1179 186.135 28.3294 185.117 27.7709C184.131 27.2124 183.03 26.9331 181.815 26.9329ZM264.842 26.4896C263.955 26.4896 263.165 26.6701 262.475 27.0316C261.817 27.3601 261.292 27.8201 260.897 28.4116C260.537 29.0029 260.357 29.7094 260.357 30.5309C260.357 31.7136 260.767 32.6829 261.587 33.4386C262.41 34.1944 263.495 34.5721 264.842 34.5721C265.762 34.5721 266.55 34.4079 267.207 34.0791C267.897 33.7179 268.422 33.2414 268.785 32.6501C269.177 32.0259 269.375 31.3194 269.375 30.5309C269.375 29.3151 268.947 28.3459 268.095 27.6231C267.272 26.8674 266.187 26.4896 264.842 26.4896ZM125.878 26.3416C124.432 26.3416 123.184 26.7031 122.132 27.4259C121.114 28.1159 120.342 29.1181 119.816 30.4324C119.602 30.9664 119.433 31.5414 119.306 32.1571H131.94C131.841 31.0401 131.529 30.0379 131.003 29.1509C130.51 28.2636 129.821 27.5739 128.933 27.0809C128.079 26.5881 127.061 26.3416 125.878 26.3416ZM291.777 26.3416C290.33 26.3416 289.082 26.7031 288.03 27.4259C287.012 28.1159 286.24 29.1181 285.715 30.4324C285.5 30.9664 285.332 31.5414 285.205 32.1571H297.837C297.74 31.0401 297.427 30.0379 296.902 29.1509C296.41 28.2636 295.72 27.5739 294.832 27.0809C293.977 26.5881 292.96 26.3416 291.777 26.3416Z" fill="white"/>
</g>
<defs>
<clipPath id="clip0_11777_498">
<rect width="304" height="60" fill="white"/>
</clipPath>
</defs>
</svg>
